#!OML:ASF G:\JayActor3\Patient Classification 1\Patient 1\Session 6\male.ASF
:FULLY-SPECIFIED
:DEGREES
1756
root -32.4684 16.5269 -14.9125 3.64589 -147.508 -358.275
lowerback 1.29884 -1.53663 2.73575
upperback 2.79928 -2.14559 0.815073
thorax 2.07761 -1.05906 -0.706546
lowerneck 5.22252 7.17603 9.61682
upperneck -6.64049 9.80561 -8.23333
head -1.9217 4.93363 -4.25554
rclavicle 1.07617e-013 -1.73937e-014
rhumerus -37.5782 16.7491 -94.5931
rradius 73.3147
rwrist 11.215
rhand -33.8012 -1.61475
rfingers 7.12502
rthumb -6.98766 -31.4794
lclavicle 1.07617e-013 -1.73937e-014
lhumerus -34.4607 -12.2555 91.7933
lradius 65.0296
lwrist 11.3221
lhand -13.0135 8.16902
lfingers 7.12502
lthumb 13.0802 37.7389
rfemur -21.8518 7.18388 28.0175
rtibia 37.7919
rfoot -20.2809 -13.2545
rtoes 4.71728
lfemur -4.17644 9.05048 -7.55305
ltibia 50.3222
lfoot 4.85589 -1.90724
ltoes -9.13279
1757
root -32.4634 16.5272 -14.9385 3.49191 -147.239 -358.085
lowerback 1.34548 -1.52579 2.93236
upperback 2.82889 -2.13434 0.865154
thorax 2.07782 -1.05113 -0.763993
lowerneck 5.25918 7.15513 9.6255
upperneck -6.68416 9.77938 -8.24158
head -1.94209 4.92068 -4.26237
rclavicle 6.92268e-014 -7.15625e-015
rhumerus -37.5279 16.6987 -94.5467
rradius 73.2658
rwrist 11.2441
rhand -33.8009 -1.59426
rfingers 7.12502
rthumb -6.98735 -31.4589
lclavicle 6.92268e-014 -7.15625e-015
lhumerus -34.3428 -12.2997 91.744
lradius 65.0575
lwrist 11.332
lhand -13.0285 8.15821
lfingers 7.12502
lthumb 13.0657 37.729
rfemur -21.5987 7.10692 28.2784
rtibia 37.5833
rfoot -20.3702 -13.4001
rtoes 4.83319
lfemur -5.07562 9.19108 -7.36519
ltibia 51.6386
lfoot 4.94399 -1.35779
ltoes -8.13248
1758
root -32.4594 16.527 -14.9634 3.31057 -146.942 -357.895
lowerback 1.41877 -1.52524 3.13959
upperback 2.86206 -2.13622 0.915999
thorax 2.06608 -1.04989 -0.825827
lowerneck 5.2937 7.13994 9.65767
upperneck -6.71828 9.76118 -8.2787
head -1.95587 4.91237 -4.28098
rclavicle -4.26393e-014 1.51076e-014
rhumerus -37.4814 16.6595 -94.4963
rradius 73.2157
rwrist 11.2757
rhand -33.7996 -1.57303
rfingers 7.12502
rthumb -6.98615 -31.4377
lclavicle -4.26393e-014 1.51076e-014
lhumerus -34.2267 -12.3503 91.7008
lradius 65.0759
lwrist 11.3337
lhand -13.0308 8.15894
lfingers 7.12502
lthumb 13.0635 37.7298
rfemur -21.3283 6.99521 28.5397
rtibia 37.3861
rfoot -20.4625 -13.5511
rtoes 4.93221
lfemur -5.94769 9.28372 -7.19739
ltibia 52.8957
lfoot 4.78168 -0.73609
ltoes -7.30101
1759
root -32.4563 16.5263 -14.9869 3.11141 -146.634 -357.698
lowerback 1.50872 -1.53192 3.35802
upperback 2.89501 -2.14706 0.968125
thorax 2.04416 -1.0532 -0.892033
lowerneck 5.33947 7.13634 9.70342
upperneck -6.75459 9.75942 -8.33671
head -1.96883 4.91291 -4.30851
rclavicle -1.33186e-014 6.75868e-015
rhumerus -37.4424 16.6391 -94.4461
rradius 73.1693
rwrist 11.3033
rhand -33.7974 -1.56497
rfingers 7.12502
rthumb -6.98395 -31.4298
lclavicle -1.33186e-014 6.75868e-015
lhumerus -34.1155 -12.4027 91.6593
lradius 65.0847
lwrist 11.3283
lhand -13.0246 8.15798
lfingers 7.12502
lthumb 13.0695 37.7285
rfemur -21.0547 6.85949 28.803
rtibia 37.2022
rfoot -20.5613 -13.6925
rtoes 5.06603
lfemur -6.79644 9.34951 -7.0452
ltibia 54.0747
lfoot 4.34125 -0.0861819
ltoes -6.65322
1760
root -32.4541 16.5248 -15.0093 2.90095 -146.322 -357.51
lowerback 1.61725 -1.54165 3.57486
upperback 2.92831 -2.16094 1.01834
thorax 2.01207 -1.05832 -0.958675
lowerneck 5.37689 7.13771 9.77228
upperneck -6.7793 9.76439 -8.42003
head -1.97386 4.91723 -4.34639
rclavicle -3.84897e-014 1.23246e-014
rhumerus -37.4129 16.6299 -94.3929
rradius 73.1307
rwrist 11.322
rhand -33.7946 -1.57088
rfingers 7.12502
rthumb -6.98125 -31.4358
lclavicle -3.84897e-014 1.23246e-014
lhumerus -34.0087 -12.4623 91.6219
lradius 65.0845
lwrist 11.3169
lhand -13.0152 8.15851
lfingers 7.12502
lthumb 13.0786 37.7284
rfemur -20.779 6.69892 29.0573
rtibia 37.035
rfoot -20.665 -13.8363
rtoes 5.17841
lfemur -7.61175 9.3909 -6.9216
ltibia 55.1549
lfoot 3.62225 0.544062
ltoes -6.26436
1761
root -32.4525 16.5227 -15.0309 2.69122 -146.028 -357.334
lowerback 1.72956 -1.549 3.77978
upperback 2.96133 -2.17104 1.06678
thorax 1.97808 -1.06186 -1.0203
lowerneck 5.42328 7.15013 9.83363
upperneck -6.80545 9.78453 -8.50229
head -1.97979 4.92944 -4.38329
rclavicle -2.96935e-014 6.36111e-015
rhumerus -37.3867 16.6324 -94.3391
rradius 73.0943
rwrist 11.3332
rhand -33.7921 -1.58335
rfingers 7.12502
rthumb -6.97885 -31.4483
lclavicle -2.96935e-014 6.36111e-015
lhumerus -33.8943 -12.4731 91.5583
lradius 65.0513
lwrist 11.1239
lhand -12.7564 8.0609
lfingers 7.12502
lthumb 13.328 37.6147
rfemur -20.5119 6.53138 29.2979
rtibia 36.89
rfoot -20.774 -13.9774
rtoes 5.27086
lfemur -8.38551 9.42142 -6.83278
ltibia 56.1136
lfoot 2.65492 1.12079
ltoes -6.09465
1762
root -32.4514 16.5197 -15.052 2.50249 -145.778 -357.193
lowerback 1.83601 -1.54258 3.95097
upperback 2.99466 -2.16235 1.10722
thorax 1.94937 -1.05643 -1.07156
lowerneck 5.4556 7.16932 9.89632
upperneck -6.81356 9.81334 -8.58504
head -1.97714 4.946 -4.41934
rclavicle 3.94339e-014 -3.77691e-015
rhumerus -37.3576 16.6324 -94.283
rradius 73.0545
rwrist 11.3388
rhand -33.7904 -1.5926
rfingers 7.12502
rthumb -6.97724 -31.4576
lclavicle 3.94339e-014 -3.77691e-015
lhumerus -33.7719 -12.45 91.4793
lradius 64.9899
lwrist 10.7917
lhand -12.3083 7.88986
lfingers 7.12502
lthumb 13.7599 37.4149
rfemur -20.2635 6.37728 29.5058
rtibia 36.7725
rfoot -20.8862 -14.1199
rtoes 5.31703
lfemur -9.10673 9.4727 -6.79513
ltibia 56.9288
lfoot 1.49505 1.61057
ltoes -6.17481
1763
root -32.4511 16.516 -15.0731 2.33912 -145.571 -357.104
lowerback 1.93552 -1.52453 4.07426
upperback 3.03007 -2.13793 1.13647
thorax 1.92862 -1.04367 -1.10797
lowerneck 5.50451 7.20274 9.93168
upperneck -6.82893 9.86187 -8.64337
head -1.98016 4.9724 -4.44492
rclavicle -1.47598e-014 1.37161e-014
rhumerus -37.3267 16.632 -94.2268
rradius 73.0136
rwrist 11.3403
rhand -33.7888 -1.59556
rfingers 7.12502
rthumb -6.9757 -31.4606
lclavicle -1.47598e-014 1.37161e-014
lhumerus -33.6443 -12.3872 91.3834
lradius 64.9017
lwrist 10.322
lhand -11.6714 7.64204
lfingers 7.12502
lthumb 14.3736 37.1244
rfemur -20.027 6.23875 29.6663
rtibia 36.6874
rfoot -21.0113 -14.2559
rtoes 5.34258
lfemur -9.76543 9.53523 -6.82243
ltibia 57.5905
lfoot 0.208809 2.02928
ltoes -6.40099
1764
root -32.4525 16.5119 -15.0952 2.2047 -145.414 -357.076
lowerback 2.01327 -1.49081 4.14629
upperback 3.07338 -2.09343 1.14927
thorax 1.93029 -1.02102 -1.13369
lowerneck 5.54414 7.2445 9.96958
upperneck -6.82551 9.922 -8.69952
head -1.97495 5.00459 -4.4692
rclavicle 5.17337e-014 9.14409e-015
rhumerus -37.2834 16.6197 -94.1717
rradius 72.9572
rwrist 11.3461
rhand -33.793 -1.59795
rfingers 7.12502
rthumb -6.97976 -31.4629
lclavicle 5.17337e-014 9.14409e-015
lhumerus -33.5145 -12.3067 91.2814
lradius 64.7971
lwrist 9.79744
lhand -10.9589 7.35718
lfingers 7.12502
lthumb 15.0601 36.7894
rfemur -19.7911 6.11712 29.7688
rtibia 36.6356
rfoot -21.1492 -14.3806
rtoes 5.30479
lfemur -10.3403 9.61455 -6.92387
ltibia 58.0887
lfoot -1.1535 2.39439
ltoes -6.78034
1765
root -32.454 16.5071 -15.1172 2.09988 -145.285 -357.083
lowerback 2.079 -1.44884 4.17972
upperback 3.11255 -2.03789 1.15584
thorax 1.93597 -0.993276 -1.14473
lowerneck 5.59843 7.29518 9.99506
upperneck -6.8262 9.99499 -8.74577
head -1.97325 5.04339 -4.48944
rclavicle -1.38155e-014 1.98785e-015
rhumerus -37.2448 16.6045 -94.1173
rradius 72.9027
rwrist 11.352
rhand -33.7996 -1.59175
rfingers 7.12502
rthumb -6.98611 -31.4565
lclavicle -1.38155e-014 1.98785e-015
lhumerus -33.3925 -12.2356 91.1903
lradius 64.6884
lwrist 9.32358
lhand -10.3082 7.09313
lfingers 7.12502
lthumb 15.6868 36.4773
rfemur -19.5828 6.02549 29.8377
rtibia 36.6177
rfoot -21.3016 -14.5055
rtoes 5.26755
lfemur -10.8843 9.70443 -7.06879
ltibia 58.4475
lfoot -2.5338 2.69511
ltoes -7.2558
1766
root -32.4571 16.5019 -15.1397 2.00316 -145.145 -357.127
lowerback 2.13467 -1.41092 4.18904
upperback 3.15639 -1.98824 1.15355
thorax 1.95223 -0.968507 -1.15182
lowerneck 5.66021 7.35352 10.0083
upperneck -6.82093 10.0791 -8.7786
head -1.97127 5.08785 -4.50395
rclavicle 4.30866e-014 -1.41137e-014
rhumerus -37.2182 16.5857 -94.0634
rradius 72.8572
rwrist 11.3625
rhand -33.8107 -1.58815
rfingers 7.12502
rthumb -6.99686 -31.4525
lclavicle 4.30866e-014 -1.41137e-014
lhumerus -33.2834 -12.2004 91.1232
lradius 64.5848
lwrist 8.97665
lhand -9.83265 6.90949
lfingers 7.12502
lthumb 16.1448 36.2571
rfemur -19.3709 5.92496 29.8706
rtibia 36.6326
rfoot -21.4756 -14.6268
rtoes 5.20075
lfemur -11.3796 9.76339 -7.26221
ltibia 58.6787
lfoot -3.90391 2.93083
ltoes -7.83438
1767
root -32.4595 16.4955 -15.1616 1.9174 -144.988 -357.156
lowerback 2.18101 -1.37875 4.19724
upperback 3.18911 -1.94605 1.15878
thorax 1.96219 -0.947647 -1.15061
lowerneck 5.7272 7.41165 10.0295
upperneck -6.81213 10.1638 -8.82093
head -1.96805 5.13291 -4.52265
rclavicle -6.61456e-014 1.88845e-014
rhumerus -37.1802 16.5548 -94.0103
rradius 72.785
rwrist 11.3899
rhand -33.8283 -1.57618
rfingers 7.12502
rthumb -7.01381 -31.44
lclavicle -6.61456e-014 1.88845e-014
lhumerus -33.1874 -12.2012 91.0784
lradius 64.488
lwrist 8.76905
lhand -9.54092 6.80989
lfingers 7.12502
lthumb 16.4257 36.1345
rfemur -19.2024 5.84467 29.9135
rtibia 36.6804
rfoot -21.6636 -14.7582
rtoes 5.14765
lfemur -11.8962 9.81285 -7.45086
ltibia 58.8174
lfoot -5.22036 3.07391
ltoes -8.4756
1768
root -32.4608 16.4876 -15.1825 1.83768 -144.814 -357.156
lowerback 2.21566 -1.3504 4.21775
upperback 3.21122 -1.909 1.17441
thorax 1.96749 -0.929292 -1.14573
lowerneck 5.79718 7.47543 10.0375
upperneck -6.79665 10.2563 -8.85083
head -1.96393 5.18193 -4.53554
rclavicle -6.34123e-014 2.5842e-015
rhumerus -37.148 16.5172 -93.9552
rradius 72.714
rwrist 11.4245
rhand -33.8497 -1.55997
rfingers 7.12502
rthumb -7.03445 -31.4231
lclavicle -6.34123e-014 2.5842e-015
lhumerus -33.1002 -12.2586 91.0628
lradius 64.4013
lwrist 8.74191
lhand -9.50257 6.82062
lfingers 7.12502
lthumb 16.4626 36.1421
rfemur -19.0838 5.78631 29.9799
rtibia 36.7608
rfoot -21.8657 -14.8946
rtoes 5.13432
lfemur -12.4488 9.86639 -7.62109
ltibia 58.8789
lfoot -6.45748 3.12509
ltoes -9.25259
1769
root -32.4621 16.4785 -15.2031 1.75582 -144.632 -357.127
lowerback 2.23274 -1.32572 4.2566
upperback 3.22729 -1.87748 1.19909
thorax 1.97597 -0.913375 -1.14212
lowerneck 5.87326 7.54012 10.0447
upperneck -6.77866 10.3504 -8.88395
head -1.95971 5.2321 -4.54947
rclavicle -1.76421e-014 3.37934e-015
rhumerus -37.1073 16.4721 -93.899
rradius 72.624
rwrist 11.4752
rhand -33.8733 -1.54236
rfingers 7.12502
rthumb -7.05726 -31.4047
lclavicle -1.76421e-014 3.37934e-015
lhumerus -33.0111 -12.3175 91.0459
lradius 64.3033
lwrist 8.71077
lhand -9.45851 6.83034
lfingers 7.12502
lthumb 16.505 36.1483
rfemur -18.9997 5.73441 30.0675
rtibia 36.8729
rfoot -22.073 -15.0164
rtoes 5.14902
lfemur -13.0165 9.92683 -7.77734
ltibia 58.8718
lfoot -7.62389 3.08596
ltoes -10.0356
1770
root -32.463 16.4682 -15.223 1.67859 -144.449 -357.074
lowerback 2.23994 -1.30224 4.30555
upperback 3.23558 -1.84764 1.23063
thorax 1.98183 -0.898196 -1.13723
lowerneck 5.9487 7.6051 10.0494
upperneck -6.75895 10.4449 -8.91315
head -1.95516 5.2824 -4.56179
rclavicle 4.08999e-014 -2.38542e-015
rhumerus -37.0691 16.4237 -93.8439
rradius 72.5339
rwrist 11.5288
rhand -33.8956 -1.52267
rfingers 7.12502
rthumb -7.07882 -31.3843
lclavicle 4.08999e-014 -2.38542e-015
lhumerus -32.9177 -12.3796 91.027
lradius 64.1976
lwrist 8.67651
lhand -9.42451 6.83898
lfingers 7.12502
lthumb 16.5378 36.1542
rfemur -18.9559 5.69551 30.1724
rtibia 37.0129
rfoot -22.2851 -15.1239
rtoes 5.22212
lfemur -13.6019 9.96611 -7.93554
ltibia 58.7902
lfoot -8.70684 2.98673
ltoes -10.8727
